#!OML:ASF F:\VICON\USERDATA\INSTALL\rory3\rory3.ASF
:FULLY-SPECIFIED
:DEGREES
928
root -1.90735 18.0359 -0.0386369 9.2095 -28.381 9.83764
lowerback 5.02905 -7.19796 -3.15815
upperback 3.86037 -9.80431 5.45147
thorax 2.73428 -5.13586 7.588
lowerneck -21.6579 6.71681 -7.75648
upperneck 33.8461 12.769 -0.327112
head 14.9725 4.19125 3.49052
rclavicle -4.21423e-014 1.59028e-015
rhumerus 14.0051 26.0374 -47.5788
rradius 60.1081
rwrist -46.9317
rhand 19.7969 -25.6824
rfingers 7.12502
rthumb 44.3459 -49.4351
lclavicle -4.21423e-014 1.59028e-015
lhumerus 73.7181 -54.5095 37.254
lradius 36.4449
lwrist -49.1627
lhand -42.7756 56.786
lfingers 7.12502
lthumb -15.6422 86.1736
rfemur -32.2282 16.4531 3.44642
rtibia 33.7546
rfoot -11.5684 1.38548
rtoes 3.923
lfemur -10.1619 13.3064 -25.674
ltibia 20.8487
lfoot -5.01633 17.4453
ltoes -31.6735
929
root -1.90676 18.0347 -0.0374741 9.13279 -28.2688 9.99712
lowerback 5.04122 -7.2021 -3.1249
upperback 3.92629 -9.80898 5.39699
thorax 2.78138 -5.13818 7.5091
lowerneck -21.8306 6.75111 -7.64316
upperneck 33.8751 12.8082 -0.339169
head 15.0319 4.21397 3.48656
rclavicle -1.59028e-014 1.43125e-014
rhumerus 13.7788 25.8898 -47.4446
rradius 60.0473
rwrist -48.5722
rhand 21.3479 -25.8848
rfingers 7.12502
rthumb 45.7886 -49.0669
lclavicle -1.59028e-014 1.43125e-014
lhumerus 75.9135 -54.5946 34.6319
lradius 36.1383
lwrist -46.8171
lhand -44.3625 53.1397
lfingers 7.12502
lthumb -17.1701 82.4011
rfemur -32.2022 16.4031 3.30633
rtibia 33.8182
rfoot -11.6598 1.28446
rtoes 3.42968
lfemur -10.1667 13.3417 -25.8114
ltibia 20.8556
lfoot -5.02269 17.2731
ltoes -31.8851
930
root -1.90723 18.0355 -0.0353277 9.17326 -28.1742 10.0585
lowerback 4.94361 -7.22724 -3.01662
upperback 3.99243 -9.84023 5.38004
thorax 2.88769 -5.1539 7.41246
lowerneck -21.9811 6.80191 -7.49226
upperneck 33.8593 12.9003 -0.487116
head 15.0816 4.24604 3.42834
rclavicle 6.67916e-014 -2.8625e-014
rhumerus 13.5827 25.9258 -47.1905
rradius 60.2135
rwrist -50.2169
rhand 22.2317 -26.1966
rfingers 7.12502
rthumb 46.6081 -49.0336
lclavicle 6.67916e-014 -2.8625e-014
lhumerus 77.7003 -54.5521 32.4085
lradius 36.0818
lwrist -45.5526
lhand -45.2718 52.3117
lfingers 7.12502
lthumb -18.0452 81.4946
rfemur -32.2556 16.3411 3.24522
rtibia 33.8654
rfoot -11.7124 1.22258
rtoes 3.16724
lfemur -10.238 13.3718 -25.8612
ltibia 20.8675
lfoot -5.1645 17.1051
ltoes -31.8528
931
root -1.90864 18.036 -0.0359746 9.18028 -28.1217 10.166
lowerback 4.92749 -7.25664 -3.06254
upperback 4.01116 -9.88353 5.4289
thorax 2.94098 -5.18073 7.4841
lowerneck -21.94 6.89724 -7.53778
upperneck 33.7497 13.074 -0.568482
head 15.0189 4.31245 3.42518
rclavicle -5.08889e-014 3.65764e-014
rhumerus 13.3921 26.1325 -46.8093
rradius 60.4825
rwrist -51.5444
rhand 22.9552 -26.4787
rfingers 7.12502
rthumb 47.2774 -49.0217
lclavicle -5.08889e-014 3.65764e-014
lhumerus 78.7951 -54.4246 31.0674
lradius 36.068
lwrist -45.4603
lhand -45.4782 53.4745
lfingers 7.12502
lthumb -18.2437 82.639
rfemur -32.3232 16.3294 3.12198
rtibia 33.9109
rfoot -11.7719 1.19145
rtoes 3.3902
lfemur -10.295 13.3866 -25.9626
ltibia 20.8635
lfoot -5.12433 17.0115
ltoes -31.5732
932
root -1.90944 18.0331 -0.0365886 9.16834 -28.0107 10.2232
lowerback 4.98434 -7.31784 -3.08516
upperback 4.02941 -9.96941 5.51173
thorax 2.96297 -5.22896 7.58856
lowerneck -21.9494 7.00054 -7.61844
upperneck 33.638 13.2445 -0.556534
head 14.953 4.38725 3.46653
rclavicle 4.37326e-014 9.54166e-015
rhumerus 13.3108 26.3348 -46.4904
rradius 60.6678
rwrist -52.5657
rhand 23.7073 -26.7226
rfingers 7.12502
rthumb 47.9717 -48.9486
lclavicle 4.37326e-014 9.54166e-015
lhumerus 79.452 -54.2642 30.3403
lradius 35.9011
lwrist -45.5727
lhand -45.684 53.3977
lfingers 7.12502
lthumb -18.4417 82.5435
rfemur -32.3205 16.2742 3.07627
rtibia 33.9473
rfoot -11.8331 1.19089
rtoes 3.3915
lfemur -10.3264 13.3591 -26.0004
ltibia 20.8648
lfoot -5.00058 16.9202
ltoes -31.5407
933
root -1.91125 18.0315 -0.0335771 9.16961 -27.8629 10.2556
lowerback 4.97951 -7.36731 -3.03811
upperback 4.04688 -10.0358 5.56233
thorax 2.99644 -5.26388 7.61268
lowerneck -22.0055 7.11027 -7.48089
upperneck 33.6359 13.3925 -0.642257
head 14.9775 4.45306 3.44024
rclavicle 3.4191e-014 -8.74653e-014
rhumerus 13.1159 26.4798 -46.2571
rradius 60.8248
rwrist -53.4676
rhand 24.6198 -26.6041
rfingers 7.12502
rthumb 48.8118 -48.429
lclavicle 3.4191e-014 -8.74653e-014
lhumerus 80.031 -54.1822 29.7496
lradius 35.7114
lwrist -45.6384
lhand -45.9905 52.8524
lfingers 7.12502
lthumb -18.7366 81.9701
rfemur -32.2767 16.1663 3.08008
rtibia 33.9916
rfoot -11.9515 1.14599
rtoes 2.90771
lfemur -10.3292 13.3705 -26.0127
ltibia 20.8523
lfoot -4.9829 16.7571
ltoes -31.6748
934
root -1.91102 18.0346 -0.0328996 9.17507 -27.7267 10.2814
lowerback 4.99993 -7.39937 -2.97727
upperback 4.05638 -10.0779 5.61257
thorax 3.001 -5.28516 7.63384
lowerneck -21.9974 7.18715 -7.47389
upperneck 33.6084 13.5096 -0.668521
head 14.9608 4.50309 3.44705
rclavicle 6.59965e-014 9.54166e-015
rhumerus 12.8161 26.686 -45.9587
rradius 61.1538
rwrist -54.3933
rhand 25.5318 -26.6408
rfingers 7.12502
rthumb 49.6489 -48.0459
lclavicle 6.59965e-014 9.54166e-015
lhumerus 80.6763 -54.1244 29.0045
lradius 35.7026
lwrist -45.4789
lhand -46.2318 52.8785
lfingers 7.12502
lthumb -18.9687 81.9736
rfemur -32.2566 16.09 3.0692
rtibia 34.0486
rfoot -11.9739 1.10124
rtoes 2.52275
lfemur -10.3096 13.3605 -26.0268
ltibia 20.817
lfoot -5.0104 16.6302
ltoes -31.7381
935
root -1.9109 18.0357 -0.0362601 9.14938 -27.5516 10.3819
lowerback 5.06991 -7.42349 -3.01173
upperback 4.0736 -10.1125 5.64412
thorax 2.99873 -5.30542 7.69408
lowerneck -21.9362 7.24568 -7.38665
upperneck 33.4377 13.6036 -0.839219
head 14.8905 4.54422 3.37115
rclavicle 6.67916e-014 -8.74653e-014
rhumerus 12.5766 26.7972 -45.7562
rradius 61.4542
rwrist -55.2012
rhand 26.0775 -26.9642
rfingers 7.12502
rthumb 50.1485 -48.1086
lclavicle 6.67916e-014 -8.74653e-014
lhumerus 81.3196 -54.0887 28.2523
lradius 35.7065
lwrist -45.3675
lhand -46.4411 53.1884
lfingers 7.12502
lthumb -19.1699 82.2636
rfemur -32.2576 16.0027 2.98213
rtibia 34.1229
rfoot -11.9953 1.04639
rtoes 2.50847
lfemur -10.3005 13.2889 -26.1051
ltibia 20.7242
lfoot -4.96518 16.5229
ltoes -31.7548
936
root -1.91088 18.0335 -0.0378231 9.12916 -27.4394 10.5134
lowerback 5.04749 -7.46086 -3.06002
upperback 4.136 -10.1671 5.64673
thorax 3.09548 -5.3388 7.71351
lowerneck -22.0236 7.35385 -7.32265
upperneck 33.3523 13.7837 -0.949191
head 14.8803 4.61702 3.35027
rclavicle 1.35174e-014 4.13472e-014
rhumerus 12.5113 26.9615 -45.5316
rradius 61.7119
rwrist -55.8605
rhand 26.5632 -27.0222
rfingers 7.12502
rthumb 50.5924 -47.9283
lclavicle 1.35174e-014 4.13472e-014
lhumerus 81.5428 -54.0068 27.9453
lradius 35.7147
lwrist -45.6006
lhand -46.351 53.725
lfingers 7.12502
lthumb -19.0833 82.8088
rfemur -32.2884 16.0025 2.8258
rtibia 34.1936
rfoot -12.1103 0.935143
rtoes 2.43455
lfemur -10.3243 13.3528 -26.2324
ltibia 20.6306
lfoot -4.74253 16.376
ltoes -31.9061
937
root -1.91119 18.0328 -0.0346854 9.0967 -27.332 10.641
lowerback 5.10646 -7.5203 -3.16766
upperback 4.10392 -10.2532 5.766
thorax 3.08744 -5.38946 7.90714
lowerneck -22.0733 7.46121 -7.4801
upperneck 33.347 14.0366 -1.02537
head 14.8758 4.69277 3.38971
rclavicle -4.29375e-014 4.77083e-015
rhumerus 12.4799 27.284 -45.1248
rradius 62.0033
rwrist -56.4501
rhand 26.8078 -26.8456
rfingers 7.12502
rthumb 50.8156 -47.6294
lclavicle -4.29375e-014 4.77083e-015
lhumerus 81.0161 -53.9501 28.6409
lradius 35.6856
lwrist -46.1638
lhand -46.0937 53.7874
lfingers 7.12502
lthumb -18.8358 82.8955
rfemur -32.2928 15.9709 2.68691
rtibia 34.2713
rfoot -12.2233 0.851416
rtoes 2.43881
lfemur -10.2944 13.3985 -26.3529
ltibia 20.5028
lfoot -4.6251 16.2412
ltoes -31.8679
